<svg width="24" height="24" viewBox="0 0 24 24" fill="none" xmlns="http://www.w3.org/2000/svg">
<path fill-rule="evenodd" clip-rule="evenodd" d="M9.143 5.00061H17.58C18.132 5.00061 18.58 5.43069 18.58 5.96061C18.58 6.49053 18.132 6.92061 17.58 6.92061H9.143C6.858 6.92061 5 8.70525 5 10.8989C5 13.0915 6.858 14.8752 9.143 14.8752H15.209V13.151C15.209 12.7882 15.422 12.4569 15.759 12.2937C16.097 12.1305 16.499 12.1622 16.803 12.3782L20.594 15.0624C20.611 15.0758 20.618 15.0969 20.635 15.1104C20.713 15.1728 20.775 15.2477 20.83 15.3312C20.852 15.3658 20.882 15.3936 20.9 15.431C20.96 15.5549 21 15.6893 21 15.8352C21 15.9811 20.96 16.1165 20.9 16.2403C20.882 16.2768 20.852 16.3046 20.83 16.3401C20.775 16.4227 20.713 16.4976 20.635 16.5609C20.618 16.5744 20.611 16.5955 20.594 16.608L16.803 19.2931C16.628 19.4169 16.419 19.4803 16.209 19.4803C16.056 19.4803 15.901 19.4457 15.759 19.3776C15.422 19.2144 15.209 18.8822 15.209 18.5203V16.7952H9.143C5.756 16.7952 3 14.1504 3 10.8989C3 7.64637 5.756 5.00061 9.143 5.00061Z" fill="#121212"/>
</svg>
