<svg  width="24" height="24"   viewBox="0 0 24 24" fill="none" xmlns="http://www.w3.org/2000/svg">
<g id="Message chat like heart 1">
<path id="Vector" fill-rule="evenodd" clip-rule="evenodd" d="M14.0597 10.117C13.6737 9.99103 13.2477 10.062 12.9137 10.307C12.6467 10.501 12.2867 10.499 12.0217 10.302C11.6987 10.058 11.2737 9.99003 10.8847 10.115C10.5777 10.212 10.3507 10.401 10.2057 10.681C10.0187 11.041 9.99172 11.514 10.1307 11.951C10.4677 12.992 11.7167 13.966 12.4697 14.447C13.2277 13.96 14.4877 12.976 14.8097 11.955C14.9497 11.517 14.9227 11.044 14.7367 10.685C14.5907 10.403 14.3627 10.212 14.0597 10.117Z" fill="#FA6D3F"/>
<path id="Vector_2" fill-rule="evenodd" clip-rule="evenodd" d="M16.238 12.4102C15.609 14.4062 13.114 15.8232 12.832 15.9782C12.719 16.0402 12.595 16.0712 12.471 16.0712C12.347 16.0712 12.224 16.0412 12.112 15.9792C12 15.9192 9.36501 14.4632 8.70301 12.4112L8.70201 12.4102C8.44001 11.5902 8.50201 10.7082 8.87301 9.99117C9.20001 9.36117 9.753 8.89817 10.429 8.68517C11.108 8.46617 11.841 8.52317 12.475 8.82917C13.111 8.52717 13.843 8.47117 14.515 8.68717C15.187 8.89817 15.741 9.36317 16.068 9.99517C16.439 10.7122 16.501 11.5922 16.238 12.4102ZM19.95 6.13017C18.258 3.99117 15.736 2.67417 13.031 2.51617C10.318 2.35817 7.67101 3.36417 5.758 5.27717C2.94801 8.08517 2.18301 12.3942 3.84201 15.9762C3.95201 16.2492 4.28501 16.8692 4.83201 17.8192C4.92501 17.9822 4.91601 18.1702 4.80901 18.3212C4.58701 18.6342 4.307 19.0382 4.08601 19.3642C3.80301 19.7872 3.77701 20.3282 4.01601 20.7762C4.25501 21.2232 4.71801 21.5012 5.225 21.5012H12.479C15.277 21.5012 17.924 20.2672 19.746 18.1142C22.646 14.6932 22.731 9.65317 19.95 6.13017Z" fill="#FA6D3F"/>
</g>
</svg>
