<svg width="24" height="24" viewBox="0 0 24 24" fill="none" xmlns="http://www.w3.org/2000/svg">
<path d="M24 0V24H0V0H24Z" fill="white" fill-opacity="0.01"/>
<path fill-rule="evenodd" clip-rule="evenodd" d="M11.9923 4.9707C12.0476 4.97071 18.2444 4.97225 19.7892 5.39355C20.2129 5.50827 20.5989 5.73257 20.9093 6.04297C21.2198 6.35347 21.444 6.7402 21.5587 7.16406C22.219 9.82234 22.0664 14.0204 21.5714 16.7812C21.4567 17.2051 21.2325 17.5918 20.922 17.9023C20.6116 18.2127 20.2256 18.4371 19.8019 18.5518C18.2568 18.9732 12.0575 18.9746 12.005 18.9746C12.005 18.9746 5.75891 18.975 4.20718 18.5518C3.78347 18.437 3.39746 18.2127 3.08706 17.9023C2.77658 17.5918 2.55234 17.2051 2.43765 16.7812C1.77349 14.1345 1.95565 9.93371 2.42495 7.17676C2.53964 6.75289 2.76388 6.36618 3.07437 6.05566C3.38479 5.74529 3.77077 5.52095 4.19449 5.40625C5.74621 4.98305 11.9923 4.9707 11.9923 4.9707ZM10.0041 14.9736L15.1847 11.9727L10.0041 8.97168V14.9736Z" fill="#FF0000"/>
</svg>
