<svg width="16" height="16" viewBox="0 0 16 16" fill="none" xmlns="http://www.w3.org/2000/svg">
<path fill-rule="evenodd" clip-rule="evenodd" d="M3.64671 3.64644C3.74047 3.55281 3.86755 3.50022 4.00005 3.50022C4.13255 3.50022 4.25963 3.55281 4.35338 3.64644L8.00005 7.29311L11.6467 3.64644C11.6925 3.59732 11.7477 3.55792 11.809 3.53059C11.8704 3.50326 11.9366 3.48857 12.0037 3.48738C12.0708 3.4862 12.1375 3.49855 12.1998 3.52369C12.262 3.54884 12.3186 3.58627 12.3661 3.63375C12.4136 3.68123 12.451 3.73779 12.4761 3.80004C12.5013 3.8623 12.5136 3.92899 12.5124 3.99613C12.5113 4.06326 12.4966 4.12947 12.4692 4.1908C12.4419 4.25214 12.4025 4.30734 12.3534 4.35311L8.70672 7.99978L12.3534 11.6464C12.4025 11.6922 12.4419 11.7474 12.4692 11.8088C12.4966 11.8701 12.5113 11.9363 12.5124 12.0034C12.5136 12.0706 12.5013 12.1372 12.4761 12.1995C12.451 12.2618 12.4136 12.3183 12.3661 12.3658C12.3186 12.4133 12.262 12.4507 12.1998 12.4759C12.1375 12.501 12.0708 12.5134 12.0037 12.5122C11.9366 12.511 11.8704 12.4963 11.809 12.469C11.7477 12.4416 11.6925 12.4022 11.6467 12.3531L8.00005 8.70644L4.35338 12.3531C4.2586 12.4414 4.13323 12.4895 4.0037 12.4872C3.87417 12.4849 3.75058 12.4325 3.65897 12.3409C3.56736 12.2492 3.51488 12.1257 3.5126 11.9961C3.51031 11.8666 3.55839 11.7412 3.64671 11.6464L7.29338 7.99978L3.64671 4.35311C3.55308 4.25936 3.50049 4.13228 3.50049 3.99978C3.50049 3.86728 3.55308 3.74019 3.64671 3.64644Z" fill="#121212"/>
</svg>
