<svg width="20" height="20" viewBox="0 0 20 20" fill="none" xmlns="http://www.w3.org/2000/svg">
<path fill-rule="evenodd" clip-rule="evenodd" d="M16.596 8.42058C16.3819 8.00223 15.9569 7.74223 15.4869 7.74223H11.3385V3.3339C11.3385 2.7814 11.0002 2.3139 10.4769 2.1439C9.95102 1.97306 9.40852 2.15223 9.08519 2.59723L3.5052 10.2806C3.22854 10.6631 3.1902 11.1606 3.40437 11.5806C3.61854 11.9981 4.04354 12.2581 4.51354 12.2581H8.66102V16.6672C8.66102 17.2189 8.99935 17.6856 9.52269 17.8556C9.65435 17.8989 9.78769 17.9197 9.91852 17.9197C10.3069 17.9197 10.6744 17.7364 10.916 17.4031L16.4952 9.71975C16.7719 9.33725 16.8102 8.83975 16.596 8.42058Z" fill="white"/>
</svg>
