<svg width="28" height="28" viewBox="0 0 28 28" fill="none" xmlns="http://www.w3.org/2000/svg">
<path opacity="0.4" fill-rule="evenodd" clip-rule="evenodd" d="M22.1752 10.0949C20.774 7.17827 18.3334 4.79243 14.922 3.00627C14.7284 2.90477 14.4973 2.91993 14.3177 3.04477C14.138 3.16843 14.0447 3.3831 14.0727 3.59893C14.4203 6.25543 13.9362 9.96193 12.528 11.5649C12.2189 11.9184 11.884 12.1529 11.5142 12.2719C11.5048 10.7331 11.0183 9.25143 10.0628 7.8596C9.97533 7.73127 9.83883 7.6426 9.68483 7.61577C9.53083 7.58777 9.37099 7.62277 9.24383 7.71377C8.78883 8.0381 7.79599 8.97027 7.50549 9.2596C4.42083 12.1961 3.70333 16.4918 5.67499 20.2041C7.21849 23.1091 9.96249 24.8428 13.0449 25.0621C11.7522 24.7168 10.6847 23.8884 10.0582 22.6413C9.26949 21.0709 9.29866 19.0864 10.1328 17.4589C10.9087 15.8606 13.3937 14.1433 13.6749 13.9519C13.9642 13.7536 14.3457 13.7501 14.642 13.9426C14.9372 14.1339 15.0888 14.4851 15.027 14.8316C14.9068 15.5048 14.7762 17.2606 15.3199 18.5054C15.5369 18.2546 15.7725 17.9559 15.9323 17.7529C16.1575 17.4694 16.364 17.2104 16.5192 17.0389C16.6767 16.8651 16.8995 16.7624 17.134 16.7531C17.3662 16.7461 17.5972 16.8301 17.7687 16.9923C19.4289 18.5638 19.8488 20.7093 18.8618 22.5923C18.4068 23.4614 17.722 24.1509 16.9217 24.6176C19.2912 23.9246 21.1858 22.3484 22.3257 20.0851C23.8458 17.0634 23.7852 13.2298 22.1752 10.0949Z" fill="#121212"/>
<path fill-rule="evenodd" clip-rule="evenodd" d="M14.3663 20.331C13.4692 19.2647 13.2078 17.7889 13.167 16.5954C12.5253 17.1589 11.928 17.7795 11.6923 18.2707C11.6888 18.2777 11.6853 18.2847 11.6818 18.2917C11.0938 19.4327 11.0669 20.8152 11.6118 21.8979C11.9233 22.5209 12.5592 23.3072 13.8087 23.5149C15.365 23.8392 16.7312 22.9082 17.3017 21.822C17.787 20.8957 17.731 19.9169 17.1687 19.0384C16.31 20.1187 15.8048 20.6822 15.1527 20.6915C14.8388 20.674 14.5367 20.5329 14.3663 20.331Z" fill="#121212"/>
</svg>
