<svg width="16" height="16" viewBox="0 0 16 16" fill="none" xmlns="http://www.w3.org/2000/svg">
<path fill-rule="evenodd" clip-rule="evenodd" d="M8.16667 2.88C5.03681 2.88 2.5 5.31533 2.5 8.32C2.5 11.3247 5.03681 13.76 8.16667 13.76C11.2965 13.76 13.8333 11.3247 13.8333 8.32C13.8333 5.31533 11.2965 2.88 8.16667 2.88ZM1.5 8.32C1.5 4.78515 4.48453 1.92 8.16667 1.92C11.8488 1.92 14.8333 4.78515 14.8333 8.32C14.8333 11.8548 11.8488 14.72 8.16667 14.72C4.48453 14.72 1.5 11.8548 1.5 8.32Z" fill="#8B98A8"/>
<path fill-rule="evenodd" clip-rule="evenodd" d="M8.4414 5.18156V8.49107L11.1403 10.0367L10.628 10.8611L7.4414 9.03622V5.18156H8.4414Z" fill="#8B98A8"/>
</svg>
