<svg width="16" height="16" viewBox="0 0 16 16" fill="none" xmlns="http://www.w3.org/2000/svg">
<path fill-rule="evenodd" clip-rule="evenodd" d="M8.17007 11.315C7.89407 11.315 7.6674 11.1 7.6674 10.835C7.6674 10.5701 7.88807 10.355 8.16407 10.355H8.17007C8.44607 10.355 8.67007 10.5701 8.67007 10.835C8.67007 11.1 8.44607 11.315 8.17007 11.315ZM7.66673 6.10221C7.66673 5.83725 7.89073 5.62221 8.16673 5.62221C8.44273 5.62221 8.66673 5.83725 8.66673 6.10221V8.59503C8.66673 8.85999 8.44273 9.07503 8.16673 9.07503C7.89073 9.07503 7.66673 8.85999 7.66673 8.59503V6.10221ZM12.8734 7.16335L12.7321 6.92399C10.7414 3.52557 9.50407 2.26221 8.16673 2.26221C6.8294 2.26221 5.59205 3.52557 3.60139 6.92399L3.46072 7.16335C2.74539 8.36783 1.25872 10.8734 1.53472 12.3685C1.86005 14.1368 3.75672 14.4222 8.16673 14.4222C12.5774 14.4222 14.4741 14.1368 14.7987 12.3685C15.0747 10.8734 13.5881 8.36783 12.8734 7.16335Z" fill="#121212"/>
</svg>
