<svg width="20" height="20" viewBox="0 0 20 20" fill="none" xmlns="http://www.w3.org/2000/svg">
<path fill-rule="evenodd" clip-rule="evenodd" d="M13.4577 8.95087L11.0076 11.4009C10.891 11.5259 10.7243 11.5842 10.566 11.5842C10.4077 11.5842 10.2493 11.5259 10.1243 11.4009C9.88265 11.1592 9.88265 10.7592 10.1243 10.5175L12.5743 8.06754C12.8243 7.82587 13.216 7.82587 13.4577 8.06754C13.7077 8.3092 13.7077 8.7092 13.4577 8.95087ZM10.5743 4.1842C6.82429 4.1842 3.77429 7.2342 3.77429 10.9842C3.77429 11.0695 3.77648 11.1548 3.77973 11.239C3.78485 11.3718 3.89518 11.4759 4.02815 11.4759H6.82429C7.74929 11.4759 8.49098 12.2175 8.49098 13.1425C8.49098 13.1839 8.48923 13.2246 8.48598 13.2648C8.47248 13.4311 8.59148 13.5925 8.7584 13.5925H8.89932C9.81598 13.5925 10.566 14.3342 10.566 15.2592C10.566 15.3996 10.5476 15.5374 10.5137 15.6696C10.4771 15.8129 10.5764 15.9675 10.7243 15.9675C11.5018 15.9675 12.1567 16.5035 12.3365 17.2286C12.3748 17.3831 12.5276 17.4945 12.6791 17.4452C15.4019 16.5592 17.3743 14.0008 17.3743 10.9842C17.3743 7.2342 14.3243 4.1842 10.5743 4.1842Z" fill="white"/>
<path fill-rule="evenodd" clip-rule="evenodd" d="M8.82644 2.99109H12.3331C12.6781 2.99109 12.9581 2.71109 12.9581 2.36609C12.9581 2.02109 12.6781 1.74109 12.3331 1.74109H8.82644C8.48144 1.74109 8.20142 2.02109 8.20142 2.36609C8.20142 2.71109 8.48144 2.99109 8.82644 2.99109Z" fill="white"/>
<path fill-rule="evenodd" clip-rule="evenodd" d="M9.52076 15.2581C9.52076 14.9131 9.24076 14.6331 8.89568 14.6331H5.31989C4.97489 14.6331 4.69489 14.9131 4.69489 15.2581C4.69489 15.6031 4.97489 15.8831 5.31989 15.8831H8.89568C9.24076 15.8831 9.52076 15.6031 9.52076 15.2581Z" fill="white"/>
<path fill-rule="evenodd" clip-rule="evenodd" d="M10.7201 17.0088H7.14435C6.79935 17.0088 6.51935 17.2888 6.51935 17.6338C6.51935 17.9788 6.79935 18.2588 7.14435 18.2588H10.7201C11.0651 18.2588 11.3451 17.9788 11.3451 17.6338C11.3451 17.2888 11.0651 17.0088 10.7201 17.0088Z" fill="white"/>
<path fill-rule="evenodd" clip-rule="evenodd" d="M7.4524 13.1412C7.4524 12.7962 7.1724 12.5162 6.8274 12.5162H3.25073C2.90573 12.5162 2.62573 12.7962 2.62573 13.1412C2.62573 13.4862 2.90573 13.7662 3.25073 13.7662H6.8274C7.1724 13.7662 7.4524 13.4862 7.4524 13.1412Z" fill="white"/>
</svg>
