<svg width="28" height="28" viewBox="0 0 28 28" fill="none" xmlns="http://www.w3.org/2000/svg">
<path opacity="0.4" d="M14.101 25.6666C13.9565 25.6666 13.8121 25.6335 13.6817 25.566L9.48041 23.3912C8.28827 22.7734 7.35569 22.0801 6.62749 21.2725C5.03365 19.5061 4.14689 17.2386 4.13279 14.8865L4.08342 7.14495C4.07759 6.25147 4.65428 5.44951 5.51638 5.14749L13.2307 2.4579C13.6887 2.2943 14.1997 2.29202 14.6659 2.44989L22.4096 5.04796C23.2764 5.3374 23.8625 6.13364 23.8672 7.02597L23.9165 14.7733C23.9318 17.122 23.0755 19.3986 21.5064 21.1844C20.7864 22.0035 19.862 22.7071 18.6816 23.3363L14.518 25.5603C14.3888 25.63 14.2455 25.6655 14.101 25.6666Z" fill="#121212"/>
<path d="M13.2057 16.7077C12.9802 16.7089 12.7547 16.6277 12.5809 16.4606L10.3446 14.3099C9.99926 13.9758 9.99574 13.4335 10.3375 13.0972C10.6793 12.7597 11.2372 12.7563 11.5837 13.0892L13.1928 14.6359L17.1216 10.7623C17.4646 10.4248 18.0224 10.4213 18.3678 10.7542C18.7142 11.0883 18.7178 11.6317 18.376 11.9669L13.827 16.4526C13.6556 16.6219 13.4312 16.7066 13.2057 16.7077Z" fill="#121212"/>
</svg>
