<svg width="20" height="20" viewBox="0 0 20 20" fill="none" xmlns="http://www.w3.org/2000/svg">
<path fill-rule="evenodd" clip-rule="evenodd" d="M10.2087 17.2114C9.14707 17.2114 8.28037 16.4354 8.16621 15.4442H12.2521C12.1379 16.4354 11.2704 17.2114 10.2087 17.2114ZM17.6287 15.4442L17.1787 14.817C16.3304 13.6354 15.8821 12.253 15.8821 10.8194V8.58496C15.8821 5.78415 13.6687 3.47215 10.8337 3.17215V1.81055H9.58374V3.17215C6.74871 3.47215 4.53454 5.78415 4.53454 8.58496V10.8194C4.53454 12.2546 4.08621 13.637 3.23787 14.817L2.78787 15.4442H6.91621C7.03454 17.097 8.45791 18.4114 10.2087 18.4114C11.9596 18.4114 13.3837 17.097 13.5021 15.4442H17.6287Z" fill="#121212"/>
</svg>
