<svg width="20" height="20" viewBox="0 0 20 20" fill="none" xmlns="http://www.w3.org/2000/svg">
<path fill-rule="evenodd" clip-rule="evenodd" d="M2.75551 8.44907C1.90718 9.2974 1.90718 10.6774 2.75551 11.5249C3.17885 11.9491 3.73635 12.1616 4.29301 12.1616C4.85051 12.1616 5.40801 11.9491 5.83218 11.5249C6.67968 10.6774 6.67968 9.2974 5.83218 8.44907C5.00968 7.62741 3.57635 7.62741 2.75551 8.44907Z" fill="#121212"/>
<path fill-rule="evenodd" clip-rule="evenodd" d="M17.2432 8.44914C16.8324 8.03835 16.2865 7.81085 15.7049 7.81085C15.1232 7.81085 14.5765 8.03835 14.1665 8.44914C13.3182 9.29748 13.3182 10.6783 14.1665 11.5258C14.5774 11.9375 15.1232 12.1633 15.7049 12.1633C16.2857 12.1633 16.8324 11.9375 17.2432 11.5258C17.654 11.115 17.8807 10.5691 17.8807 9.98831C17.8807 9.40581 17.654 8.85998 17.2432 8.44914Z" fill="#121212"/>
<path fill-rule="evenodd" clip-rule="evenodd" d="M7.89869 12.8314C7.33785 13.3931 7.02869 14.1389 7.02869 14.9323C7.02869 15.7264 7.33785 16.4723 7.89869 17.0323C8.45948 17.5939 9.20531 17.9023 9.99948 17.9023C10.7928 17.9023 11.5395 17.5939 12.0995 17.0323C12.6603 16.4723 12.9695 15.7264 12.9695 14.9323C12.9695 14.1389 12.6603 13.3931 12.0995 12.8314C10.9778 11.7098 9.02114 11.7098 7.89869 12.8314Z" fill="#121212"/>
<path fill-rule="evenodd" clip-rule="evenodd" d="M7.89909 2.94046C7.33743 3.50046 7.02826 4.24629 7.02826 5.04046C7.02826 5.83379 7.33743 6.57963 7.89909 7.14129C8.4599 7.70213 9.20573 8.01129 9.9999 8.01129C10.7932 8.01129 11.5391 7.70213 12.0999 7.14129C12.6607 6.57963 12.9699 5.83379 12.9699 5.04046C12.9699 4.24629 12.6607 3.50046 12.0999 2.94046C10.9782 1.81713 9.02073 1.81713 7.89909 2.94046Z" fill="#121212"/>
</svg>
