<svg width="16" height="16" viewBox="0 0 16 16" fill="none" xmlns="http://www.w3.org/2000/svg">
<path fill-rule="evenodd" clip-rule="evenodd" d="M13.7974 8.59991C13.7974 9.43324 13.4641 9.49991 13.0974 9.49991H13.0041C13.0107 9.37991 13.0307 9.25991 13.0307 9.13324V6.93324C13.0307 6.80658 13.0107 6.68658 13.0041 6.56658H13.0974C13.4641 6.56658 13.7974 6.63324 13.7974 7.46658V8.59991ZM5.3974 9.19991C5.3974 9.47324 5.17073 9.69991 4.8974 9.69991C4.62406 9.69991 4.3974 9.47324 4.3974 9.19991V6.79991C4.3974 6.52658 4.62406 6.29991 4.8974 6.29991C5.17073 6.29991 5.3974 6.52658 5.3974 6.79991V9.19991ZM13.0974 5.56658H12.7841C12.3507 4.48658 11.3707 3.86658 9.96408 3.86658H5.0974C3.20406 3.86658 2.03073 5.01324 2.03073 6.86658V9.13324C2.03073 10.9866 3.20406 12.1332 5.0974 12.1332H9.96408C11.3307 12.1332 12.3107 11.5266 12.7574 10.4999H13.0974C13.6107 10.4999 14.7974 10.3132 14.7974 8.59991V7.46658C14.7974 5.75324 13.6107 5.56658 13.0974 5.56658Z" fill="#121212"/>
</svg>
