<svg  width="24" height="24"   viewBox="0 0 24 24" fill="none" xmlns="http://www.w3.org/2000/svg">
<g id="Notification 2">
<path id="Vector" fill-rule="evenodd" clip-rule="evenodd" d="M12.2505 20.6536C10.9765 20.6536 9.93646 19.7224 9.79946 18.533H14.7025C14.5655 19.7224 13.5245 20.6536 12.2505 20.6536ZM21.1545 18.533L20.6145 17.7804C19.5965 16.3624 19.0585 14.7036 19.0585 12.9832V10.302C19.0585 6.94097 16.4025 4.16657 13.0005 3.80657V2.17265H11.5005V3.80657C8.09846 4.16657 5.44146 6.94097 5.44146 10.302V12.9832C5.44146 14.7055 4.90346 16.3644 3.88546 17.7804L3.34546 18.533H8.29946C8.44146 20.5164 10.1495 22.0936 12.2505 22.0936C14.3515 22.0936 16.0605 20.5164 16.2025 18.533H21.1545Z" fill="#FF5F03"/>
</g>
</svg>
