<svg width="28" height="28" viewBox="0 0 28 28" fill="none" xmlns="http://www.w3.org/2000/svg">
<path opacity="0.4" fill-rule="evenodd" clip-rule="evenodd" d="M15.2775 6.16999C15.2775 5.11299 15.5307 4.11782 15.9694 3.22882H8.85155C5.21388 3.22882 2.76971 5.78615 2.76971 9.59299V18.7455C2.76971 22.55 5.21388 25.1073 8.85155 25.1073H18.5629C22.2017 25.1073 24.6482 22.55 24.6482 18.7455V12.2717C23.8222 12.638 22.9122 12.8457 21.9532 12.8457C18.2724 12.8457 15.2775 9.85082 15.2775 6.16999Z" fill="#121212"/>
<path fill-rule="evenodd" clip-rule="evenodd" d="M21.8995 9.5556C23.7358 9.5556 25.2303 8.0611 25.2303 6.2236C25.2303 4.3861 23.7358 2.8916 21.8995 2.8916C20.062 2.8916 18.5675 4.3861 18.5675 6.2236C18.5675 8.0611 20.062 9.5556 21.8995 9.5556Z" fill="#121212"/>
<path fill-rule="evenodd" clip-rule="evenodd" d="M14.5686 19.0205H9.00592C8.52292 19.0205 8.13092 18.6285 8.13092 18.1455C8.13092 17.6625 8.52292 17.2705 9.00592 17.2705H14.5686C15.0516 17.2705 15.4436 17.6625 15.4436 18.1455C15.4436 18.6285 15.0516 19.0205 14.5686 19.0205ZM9.00592 12.3822H11.2763C11.7593 12.3822 12.1513 12.7742 12.1513 13.2572C12.1513 13.7402 11.7593 14.1322 11.2763 14.1322H9.00592C8.52292 14.1322 8.13092 13.7402 8.13092 13.2572C8.13092 12.7742 8.52292 12.3822 9.00592 12.3822Z" fill="#121212"/>
</svg>
