<svg width="24" height="24" viewBox="0 0 24 24" fill="none" xmlns="http://www.w3.org/2000/svg">
<path fill-rule="evenodd" clip-rule="evenodd" d="M15.6494 13.3749C15.1022 13.3749 14.6568 12.9295 14.6568 12.3823C14.6568 11.8341 15.1022 11.3887 15.6494 11.3887C16.1976 11.3887 16.643 11.8341 16.643 12.3823C16.643 12.9295 16.1976 13.3749 15.6494 13.3749ZM11.8037 13.3749C11.2565 13.3749 10.811 12.9295 10.811 12.3823C10.811 11.8341 11.2565 11.3887 11.8037 11.3887C12.3518 11.3887 12.7973 11.8341 12.7973 12.3823C12.7973 12.9295 12.3518 13.3749 11.8037 13.3749ZM7.95792 13.3749C7.41072 13.3749 6.96528 12.9295 6.96528 12.3823C6.96528 11.8341 7.41072 11.3887 7.95792 11.3887C8.50608 11.3887 8.95152 11.8341 8.95152 12.3823C8.95152 12.9295 8.50608 13.3749 7.95792 13.3749ZM18.2597 5.65653C14.7038 2.10358 8.91792 2.10358 5.36208 5.65653C2.66736 8.35318 1.93296 12.4889 3.52464 15.9247C3.708 16.3807 3.828 16.6994 3.828 16.9692C3.828 17.2879 3.69264 17.6844 3.56112 18.0684C3.30672 18.8153 3.01776 19.661 3.63696 20.2793C4.25712 20.9004 5.1048 20.6095 5.85264 20.3513C6.23376 20.2197 6.62928 20.0844 6.94224 20.0834C7.2264 20.0834 7.59792 20.2332 7.96848 20.382C9.1896 20.9474 10.4942 21.221 11.7902 21.221C14.1682 21.221 16.5154 20.2985 18.2597 18.5551C21.8136 14.9993 21.8136 9.21334 18.2597 5.65653Z" fill="#121212"/>
</svg>
