<svg width="28" height="28" viewBox="0 0 28 28" fill="none" xmlns="http://www.w3.org/2000/svg">
<path opacity="0.4" fill-rule="evenodd" clip-rule="evenodd" d="M24.4828 8.13847C23.6883 6.17847 22.1565 4.74813 20.1697 4.10997C19.0893 3.75997 17.9168 3.6783 16.7758 3.86963C15.7328 4.04347 14.789 4.6688 13.9957 5.24863C13.2303 4.69213 12.262 4.0563 11.2167 3.8813C10.0908 3.69347 8.91834 3.77047 7.824 4.11113C3.47234 5.5193 2.13184 10.2816 3.34867 14.0674C5.24217 20.1469 13.4042 24.0144 13.7507 24.1754C13.8288 24.2127 13.9128 24.2302 13.9968 24.2302C14.0808 24.2302 14.1648 24.2127 14.243 24.1754C14.5848 24.0179 22.6243 20.2204 24.6333 14.0732C25.2762 12.0712 25.2225 9.96547 24.4828 8.13847Z" fill="#121212"/>
<path d="M17.6344 14.1275H19.1814C19.6644 14.1275 20.0564 13.7355 20.0564 13.2525C20.0564 12.7695 19.6644 12.3775 19.1814 12.3775H17.1048C16.7793 12.3775 16.4806 12.5584 16.3301 12.8465L15.5473 14.3422L13.2093 9.88208C13.0576 9.59508 12.7601 9.41425 12.4346 9.41425C12.1091 9.41425 11.8116 9.59391 11.6599 9.88208L10.3486 12.3775H8.80157C8.31857 12.3775 7.92657 12.7695 7.92657 13.2525C7.92657 13.7355 8.31857 14.1275 8.80157 14.1275H10.8771C11.2026 14.1275 11.5001 13.9479 11.6517 13.6597L12.4334 12.171L14.7738 16.6335C14.9243 16.9229 15.2229 17.1025 15.5484 17.1025C15.8739 17.1025 16.1726 16.9217 16.3231 16.6324L17.6344 14.1275Z" fill="#121212"/>
</svg>
