<svg width="32" height="32" viewBox="0 0 32 32" fill="none" xmlns="http://www.w3.org/2000/svg">
<path fill-rule="evenodd" clip-rule="evenodd" d="M16 3C8.82 3 3 8.82 3 16C3 23.18 8.82 29 16 29C23.18 29 29 23.18 29 16C29 8.82 23.18 3 16 3ZM16.7067 10.2933C16.5192 10.1061 16.265 10.0009 16 10.0009C15.735 10.0009 15.4808 10.1061 15.2933 10.2933L11.2933 14.2933C11.1951 14.3849 11.1163 14.4953 11.0616 14.6179C11.007 14.7406 10.9776 14.873 10.9752 15.0073C10.9728 15.1416 10.9975 15.2749 11.0478 15.3995C11.0981 15.524 11.173 15.6371 11.268 15.7321C11.3629 15.827 11.476 15.9019 11.6005 15.9522C11.7251 16.0025 11.8584 16.0272 11.9927 16.0248C12.127 16.0224 12.2594 15.993 12.3821 15.9384C12.5047 15.8837 12.6151 15.8049 12.7067 15.7067L15 13.4133V21C15 21.2652 15.1054 21.5196 15.2929 21.7071C15.4804 21.8946 15.7348 22 16 22C16.2652 22 16.5196 21.8946 16.7071 21.7071C16.8946 21.5196 17 21.2652 17 21V13.4133L19.2933 15.7067C19.3849 15.8049 19.4953 15.8837 19.618 15.9384C19.7406 15.993 19.873 16.0224 20.0073 16.0248C20.1416 16.0272 20.2749 16.0025 20.3995 15.9522C20.524 15.9019 20.6371 15.827 20.7321 15.7321C20.827 15.6371 20.9019 15.524 20.9522 15.3995C21.0025 15.2749 21.0272 15.1416 21.0248 15.0073C21.0224 14.873 20.993 14.7406 20.9384 14.6179C20.8837 14.4953 20.8049 14.3849 20.7067 14.2933L16.7067 10.2933Z" fill="#9171F4"/>
</svg>
