<svg width="24" height="24" viewBox="0 0 24 24" fill="none" xmlns="http://www.w3.org/2000/svg">
<path d="M24 0V24H0V0H24Z" fill="white" fill-opacity="0.01"/>
<path d="M16.2848 9.2013C17.5729 10.1216 19.151 10.6632 20.8554 10.6632V7.38523C20.5328 7.3853 20.2111 7.35164 19.8955 7.28482V9.86502C18.1913 9.86502 16.6134 9.32358 15.325 8.4033V15.0927C15.325 18.4391 12.6108 21.1516 9.26294 21.1516C8.01377 21.1516 6.85267 20.7742 5.88818 20.1268C6.98901 21.2519 8.52418 21.9497 10.2225 21.9497C13.5707 21.9497 16.2849 19.2372 16.2849 15.8906V9.2013H16.2848ZM17.4689 5.89427C16.8106 5.17544 16.3783 4.24647 16.2848 3.21944V2.79785H15.3752C15.6042 4.10316 16.3852 5.21833 17.4689 5.89427ZM8.0057 17.559C7.6379 17.077 7.43908 16.4873 7.43998 15.881C7.43998 14.3505 8.68142 13.1096 10.2131 13.1096C10.4985 13.1094 10.7822 13.1532 11.0543 13.2394V9.8882C10.7363 9.84468 10.4155 9.82613 10.0948 9.83295V12.4414C9.82262 12.3551 9.53875 12.3113 9.25322 12.3116C7.72163 12.3116 6.48025 13.5524 6.48025 15.0831C6.48025 16.1654 7.10073 17.1025 8.0057 17.559Z" fill="#FF004F"/>
<path d="M15.3247 8.40323C16.6132 9.32351 18.1909 9.86496 19.8952 9.86496V7.28475C18.9439 7.0822 18.1017 6.58537 17.4686 5.89427C16.3848 5.21827 15.6039 4.10309 15.3749 2.79785H12.9857V15.8905C12.9803 17.4168 11.741 18.6527 10.2126 18.6527C9.31209 18.6527 8.51195 18.2236 8.00526 17.5589C7.10043 17.1025 6.47988 16.1654 6.47988 15.0832C6.47988 13.5526 7.72126 12.3116 9.25285 12.3116C9.54629 12.3116 9.82912 12.3573 10.0944 12.4414V9.83302C6.80533 9.90096 4.16016 12.587 4.16016 15.8905C4.16016 17.5396 4.81885 19.0346 5.88795 20.127C6.85243 20.7742 8.01347 21.1518 9.26271 21.1518C12.6106 21.1518 15.3248 18.439 15.3248 15.0927V8.4033L15.3247 8.40323Z" fill="#121212"/>
<path d="M19.8955 7.28483V6.58731C19.0376 6.58861 18.1967 6.34849 17.4689 5.89441C18.1132 6.59939 18.9615 7.08554 19.8955 7.28497V7.28483ZM15.3752 2.79793C15.3533 2.67321 15.3366 2.54766 15.325 2.42159V2H12.0261V15.0928C12.0208 16.619 10.7815 17.8548 9.2531 17.8548C8.8198 17.8555 8.39244 17.7542 8.00551 17.5592C8.5122 18.2238 9.31234 18.6528 10.2129 18.6528C11.7412 18.6528 12.9806 17.417 12.986 15.8907V2.798H15.3752V2.79793ZM10.0949 9.8331V9.09041C9.81923 9.05273 9.54132 9.03389 9.2631 9.034C5.91482 9.034 3.20068 11.7467 3.20068 15.0928C3.20068 17.1906 4.26737 19.0394 5.88834 20.127C4.81924 19.0347 4.16055 17.5397 4.16055 15.8906C4.16055 12.5872 6.80565 9.90103 10.0949 9.8331Z" fill="#00F2EA"/>
</svg>
