<svg width="20" height="20" viewBox="0 0 20 20" fill="none" xmlns="http://www.w3.org/2000/svg">
<path d="M9.99984 1.6665C5.4047 1.6665 1.6665 5.4047 1.6665 9.99984C1.6665 14.595 5.4047 18.3332 9.99984 18.3332C14.595 18.3332 18.3332 14.595 18.3332 9.99984C18.3332 5.4047 14.595 1.6665 9.99984 1.6665ZM12.5741 11.5922C12.8457 11.8637 12.8457 12.3026 12.5741 12.5741C12.4387 12.7096 12.2609 12.7776 12.0832 12.7776C11.9054 12.7776 11.7276 12.7096 11.5922 12.5741L9.99984 10.9818L8.40748 12.5741C8.27206 12.7096 8.09428 12.7776 7.9165 12.7776C7.73873 12.7776 7.56095 12.7096 7.42553 12.5741C7.154 12.3026 7.154 11.8637 7.42553 11.5922L9.01789 9.99984L7.42553 8.40748C7.154 8.13595 7.154 7.69706 7.42553 7.42553C7.69706 7.154 8.13595 7.154 8.40748 7.42553L9.99984 9.01789L11.5922 7.42553C11.8637 7.154 12.3026 7.154 12.5741 7.42553C12.8457 7.69706 12.8457 8.13595 12.5741 8.40748L10.9818 9.99984L12.5741 11.5922Z" fill="#121212"/>
</svg>
