<svg width="16" height="16" viewBox="0 0 16 16" fill="none" xmlns="http://www.w3.org/2000/svg">
<path fill-rule="evenodd" clip-rule="evenodd" d="M8.16693 8.40883C7.19293 8.40883 6.40029 7.64787 6.40029 6.71281C6.40029 5.77777 7.19293 5.01681 8.16693 5.01681C9.14093 5.01681 9.9336 5.77777 9.9336 6.71281C9.9336 7.64787 9.14093 8.40883 8.16693 8.40883ZM11.7876 3.04497C10.8003 2.06705 9.51427 1.52881 8.16627 1.52881C6.81827 1.52881 5.53163 2.06769 4.54363 3.04625C3.54096 4.03889 2.99029 5.37265 3.03363 6.70513C3.10296 8.84531 4.61096 10.4075 5.94163 11.7855C6.95693 12.8363 7.83293 13.7439 7.83293 14.6488H8.4996C8.4996 13.7157 9.3776 12.8197 10.3936 11.7816C11.7229 10.4242 13.2303 8.88563 13.2996 6.70513C13.3423 5.37201 12.7909 4.03761 11.7876 3.04497Z" fill="#3DC562"/>
</svg>
