<svg width="16" height="16" viewBox="0 0 16 16" fill="none" xmlns="http://www.w3.org/2000/svg">
<path fill-rule="evenodd" clip-rule="evenodd" d="M3.64667 3.64669C3.74042 3.55305 3.8675 3.50046 4 3.50046C4.1325 3.50046 4.25959 3.55305 4.35334 3.64669L8 7.29335L11.6467 3.64669C11.6924 3.59756 11.7476 3.55816 11.809 3.53083C11.8703 3.50351 11.9365 3.48881 12.0037 3.48763C12.0708 3.48644 12.1375 3.49879 12.1997 3.52394C12.262 3.54909 12.3185 3.58652 12.366 3.634C12.4135 3.68147 12.4509 3.73803 12.4761 3.80029C12.5012 3.86255 12.5136 3.92923 12.5124 3.99637C12.5112 4.0635 12.4965 4.12971 12.4692 4.19105C12.4419 4.25238 12.4025 4.30758 12.3533 4.35335L8.70667 8.00002L12.3533 11.6467C12.4025 11.6925 12.4419 11.7477 12.4692 11.809C12.4965 11.8703 12.5112 11.9365 12.5124 12.0037C12.5136 12.0708 12.5012 12.1375 12.4761 12.1998C12.4509 12.262 12.4135 12.3186 12.366 12.366C12.3185 12.4135 12.262 12.451 12.1997 12.4761C12.1375 12.5012 12.0708 12.5136 12.0037 12.5124C11.9365 12.5112 11.8703 12.4965 11.809 12.4692C11.7476 12.4419 11.6924 12.4025 11.6467 12.3534L8 8.70669L4.35334 12.3534C4.25855 12.4417 4.13319 12.4898 4.00365 12.4875C3.87412 12.4852 3.75053 12.4327 3.65892 12.3411C3.56731 12.2495 3.51484 12.1259 3.51255 11.9964C3.51027 11.8668 3.55835 11.7415 3.64667 11.6467L7.29334 8.00002L3.64667 4.35335C3.55304 4.2596 3.50044 4.13252 3.50044 4.00002C3.50044 3.86752 3.55304 3.74044 3.64667 3.64669Z" fill="#121212"/>
</svg>
