<svg width="24" height="24" viewBox="0 0 24 24" fill="none" xmlns="http://www.w3.org/2000/svg">
<path fill-rule="evenodd" clip-rule="evenodd" d="M14.857 5.00061H6.42C5.868 5.00061 5.42 5.43069 5.42 5.96061C5.42 6.49053 5.868 6.92061 6.42 6.92061H14.857C17.142 6.92061 19 8.70525 19 10.8989C19 13.0915 17.142 14.8752 14.857 14.8752H8.791V13.151C8.791 12.7882 8.578 12.4569 8.241 12.2937C7.903 12.1305 7.501 12.1622 7.197 12.3782L3.406 15.0624C3.389 15.0758 3.382 15.0969 3.365 15.1104C3.287 15.1728 3.225 15.2477 3.17 15.3312C3.148 15.3658 3.118 15.3936 3.1 15.431C3.04 15.5549 3 15.6893 3 15.8352C3 15.9811 3.04 16.1165 3.1 16.2403C3.118 16.2768 3.148 16.3046 3.17 16.3401C3.225 16.4227 3.287 16.4976 3.365 16.5609C3.382 16.5744 3.389 16.5955 3.406 16.608L7.197 19.2931C7.372 19.4169 7.581 19.4803 7.791 19.4803C7.944 19.4803 8.099 19.4457 8.241 19.3776C8.578 19.2144 8.791 18.8822 8.791 18.5203V16.7952H14.857C18.244 16.7952 21 14.1504 21 10.8989C21 7.64637 18.244 5.00061 14.857 5.00061Z" fill="#121212"/>
</svg>
