<svg width="28" height="28" viewBox="0 0 28 28" fill="none" xmlns="http://www.w3.org/2000/svg">
<path opacity="0.4" fill-rule="evenodd" clip-rule="evenodd" d="M13.537 3.76923C7.89498 3.76923 3.30621 8.35907 3.30621 14C3.30621 19.642 7.89498 24.2308 13.537 24.2308C19.1779 24.2308 23.7678 19.642 23.7678 14C23.7678 8.35907 19.1779 3.76923 13.537 3.76923Z" fill="#121212"/>
<path d="M16.601 17.5766C16.8756 17.5766 17.1438 17.4366 17.2956 17.1835C17.525 16.8012 17.4001 16.3047 17.0167 16.0754L13.9916 14.264V10.3181C13.9916 9.87115 13.6298 9.51038 13.1839 9.51038C12.7381 9.51038 12.3762 9.87115 12.3762 10.3181V14.7217C12.3762 15.006 12.5248 15.2698 12.7693 15.4152L16.1885 17.4614C16.3178 17.54 16.461 17.5766 16.601 17.5766Z" fill="#121212"/>
</svg>
