<svg width="16" height="16" viewBox="0 0 16 16" fill="none" xmlns="http://www.w3.org/2000/svg">
<path fill-rule="evenodd" clip-rule="evenodd" d="M12.7375 12.664H8.70947C8.43347 12.664 8.20947 12.879 8.20947 13.144C8.20947 13.409 8.43347 13.624 8.70947 13.624H12.7375C13.0135 13.624 13.2375 13.409 13.2375 13.144C13.2375 12.879 13.0135 12.664 12.7375 12.664Z" fill="white"/>
<path fill-rule="evenodd" clip-rule="evenodd" d="M6.23797 5.41659C6.30303 5.33011 6.42904 5.3111 6.51857 5.37429L9.86967 7.73887C9.95807 7.80127 9.9776 7.92051 9.9134 8.00595L6.9894 11.8964C6.63605 12.3828 6.11605 12.7412 5.51605 12.9076L4.41257 13.2203C4.41045 13.2209 4.40827 13.2212 4.40607 13.2212C4.40385 13.2212 4.40163 13.2215 4.39951 13.2221L4.02272 13.33C3.40272 13.5028 2.78272 13.0548 2.77605 12.434V12.1917C2.77605 12.1826 2.77532 12.1735 2.77421 12.1645C2.76939 12.1253 2.76939 12.0902 2.76939 12.05L2.76272 10.9172C2.75605 10.3668 2.92939 9.82918 3.25605 9.38118L6.23797 5.41659Z" fill="white"/>
<path fill-rule="evenodd" clip-rule="evenodd" d="M11.2494 6.22602L10.734 6.91347C10.6691 7.00012 10.5431 7.01939 10.4534 6.95615C9.66966 6.4038 7.672 4.99708 7.0946 4.59046C7.00593 4.52805 6.988 4.40981 7.0524 4.32429L7.56273 3.64682C8.0694 2.97482 9.05606 2.82762 9.7494 3.31402L10.9094 4.12682C11.6094 4.61322 11.7627 5.55402 11.2494 6.22602Z" fill="white"/>
</svg>
