<svg width="20" height="20" viewBox="0 0 20 20" fill="none" xmlns="http://www.w3.org/2000/svg">
<path fill-rule="evenodd" clip-rule="evenodd" d="M13.5691 10.9416L13.0741 11.4341C12.9525 11.555 12.7925 11.6166 12.6333 11.6166C12.4733 11.6166 12.3125 11.555 12.1908 11.4325C11.9466 11.1875 11.9483 10.7916 12.1925 10.5483L12.6858 10.0566C13.44 9.30248 13.44 8.07331 12.685 7.31665C11.9283 6.56165 10.7 6.56165 9.94748 7.31581L9.45331 7.80915C9.20831 8.05248 8.81248 8.05248 8.56915 7.80748C8.32581 7.56331 8.32581 7.16748 8.57081 6.92415L9.06415 6.43248C10.3016 5.19165 12.3241 5.19165 13.5683 6.43248C14.8108 7.67665 14.8108 9.69915 13.5691 10.9416ZM11.5775 9.35081L9.32331 11.6008C9.20165 11.7225 9.04081 11.7833 8.88165 11.7833C8.72165 11.7833 8.56081 11.7225 8.43915 11.6C8.19581 11.355 8.19581 10.9591 8.43998 10.7158L10.6941 8.46498C10.9391 8.22165 11.335 8.22248 11.5783 8.46581C11.8216 8.71081 11.8216 9.10665 11.5775 9.35081ZM11.4333 13.0733L10.9391 13.5725C10.3158 14.1933 9.49748 14.5025 8.68165 14.5025C7.86581 14.5033 7.05165 14.1941 6.43165 13.5758C5.18915 12.3325 5.18915 10.31 6.42998 9.06748L6.92498 8.57415C7.16998 8.33081 7.56581 8.33081 7.80915 8.57581C8.05331 8.82081 8.05165 9.21665 7.80748 9.45998L7.31331 9.95165C6.56081 10.7066 6.56081 11.9358 7.31415 12.6916C8.06748 13.4433 9.29665 13.4408 10.0533 12.6908L10.545 12.1941C10.7875 11.9491 11.185 11.9466 11.4291 12.1891C11.675 12.4325 11.6766 12.8283 11.4333 13.0733ZM13.515 2.08331H6.48581C3.85248 2.08331 2.08331 3.93581 2.08331 6.69165V13.3083C2.08331 16.0641 3.85248 17.9166 6.48581 17.9166H13.5141C16.1475 17.9166 17.9166 16.0641 17.9166 13.3083V6.69165C17.9166 3.93581 16.1475 2.08331 13.515 2.08331Z" fill="#121212"/>
</svg>
