<svg width="20" height="20" viewBox="0 0 20 20" fill="none" xmlns="http://www.w3.org/2000/svg">
<path fill-rule="evenodd" clip-rule="evenodd" d="M6.80083 2.15002C7.0179 2.04141 7.25728 1.98486 7.5 1.98486C7.74272 1.98486 7.9821 2.04141 8.19917 2.15002L12.36 4.23169C12.4483 4.27502 12.5517 4.27502 12.64 4.23169L15.8642 2.61919C16.1024 2.50018 16.367 2.44402 16.633 2.45604C16.899 2.46806 17.1576 2.54786 17.3841 2.68786C17.6105 2.82787 17.7975 3.02344 17.9272 3.256C18.0569 3.48856 18.125 3.75041 18.125 4.01669V14.4209C18.125 15.0125 17.7908 15.5542 17.2608 15.8184L13.1983 17.8492C12.9815 17.9575 12.7424 18.0139 12.5 18.0139C12.2576 18.0139 12.0185 17.9575 11.8017 17.8492L7.64 15.7684C7.59654 15.7466 7.54861 15.7352 7.5 15.7352C7.45139 15.7352 7.40346 15.7466 7.36 15.7684L4.13667 17.3809C3.89843 17.5001 3.63368 17.5564 3.36756 17.5444C3.10144 17.5325 2.84278 17.4528 2.61617 17.3127C2.38955 17.1727 2.2025 16.9771 2.07278 16.7444C1.94305 16.5117 1.87497 16.2497 1.875 15.9834V5.57919C1.875 4.98752 2.20917 4.44585 2.73833 4.18169L6.80083 2.15085V2.15002ZM7.5 5.00002C7.66576 5.00002 7.82473 5.06587 7.94194 5.18308C8.05915 5.30029 8.125 5.45926 8.125 5.62502V12.5C8.125 12.6658 8.05915 12.8247 7.94194 12.942C7.82473 13.0592 7.66576 13.125 7.5 13.125C7.33424 13.125 7.17527 13.0592 7.05806 12.942C6.94085 12.8247 6.875 12.6658 6.875 12.5V5.62502C6.875 5.45926 6.94085 5.30029 7.05806 5.18308C7.17527 5.06587 7.33424 5.00002 7.5 5.00002ZM13.125 7.50002C13.125 7.33426 13.0592 7.17529 12.9419 7.05808C12.8247 6.94087 12.6658 6.87502 12.5 6.87502C12.3342 6.87502 12.1753 6.94087 12.0581 7.05808C11.9408 7.17529 11.875 7.33426 11.875 7.50002V14.375C11.875 14.5408 11.9408 14.6998 12.0581 14.817C12.1753 14.9342 12.3342 15 12.5 15C12.6658 15 12.8247 14.9342 12.9419 14.817C13.0592 14.6998 13.125 14.5408 13.125 14.375V7.50002Z" fill="#121212"/>
</svg>
