<svg width="16" height="16" viewBox="0 0 16 16" fill="none" xmlns="http://www.w3.org/2000/svg">
<path d="M8.66977 0.23269C9.28373 0.58173 10.3442 2.67597 10.9023 3.83944C11.0698 4.07213 11.293 4.30483 11.5721 4.363C12.8 4.53752 15.0325 4.94473 15.5907 5.46829C15.7395 5.62342 15.8512 5.81733 15.9256 6.05003C16 6.28272 16.0186 6.51541 15.9814 6.7481C15.8139 7.44618 14.2511 9.19138 13.3581 10.064C13.1907 10.2967 13.0791 10.5875 13.1349 10.9366C13.3023 12.1582 13.6372 14.5433 13.3581 15.2414C13.2465 15.4353 13.0977 15.6098 12.9116 15.765C12.7256 15.9201 12.5209 15.9977 12.2977 15.9977C11.5721 16.0558 9.50697 15.0087 8.4465 14.4852C8.16743 14.3106 7.83255 14.3106 7.60929 14.4852C6.49302 15.0087 4.4279 16.0558 3.70232 15.9977C3.47906 15.9977 3.27442 15.9201 3.08838 15.765C2.90233 15.6098 2.77206 15.4353 2.69764 15.2414C2.41857 14.5433 2.69765 12.1582 2.92091 10.9366C2.92091 10.5875 2.86509 10.2967 2.64184 10.064C1.80463 9.19138 0.18605 7.44618 0.0186082 6.7481C-0.0186011 6.51541 -1.00968e-05 6.28272 0.0744085 6.05003C0.148827 5.81733 0.260441 5.62342 0.409279 5.46829C0.967418 4.94473 3.25576 4.53752 4.42786 4.363C4.70693 4.30483 4.98604 4.07213 5.09767 3.83944C5.65581 2.67597 6.77207 0.58173 7.38603 0.23269C7.57207 0.0775609 7.77671 0 7.99997 0C8.26043 0 8.48373 0.0775609 8.66977 0.23269Z" fill="url(#paint0_radial_6040_13601)"/>
<path opacity="0.5" d="M7.99996 2.15247C8.33484 2.15247 8.61392 2.26881 8.78137 2.61785C8.85578 2.69542 8.91163 2.77298 8.94884 2.85054C9.2093 3.35471 9.46971 3.87827 9.73018 4.42122C10.0651 5.1193 10.679 5.52652 11.4046 5.64287C11.9627 5.75921 12.5209 5.87556 13.079 5.9919C13.1534 5.9919 13.2465 6.0113 13.3581 6.05008C13.693 6.10825 13.9163 6.34095 14.0279 6.68999C14.1395 7.03903 14.0837 7.32989 13.8604 7.62076C13.786 7.69832 13.7116 7.77589 13.6372 7.85346C13.2651 8.28006 12.8744 8.70666 12.4651 9.13327C11.9627 9.65683 11.7395 10.4131 11.8511 11.1112C11.9256 11.6929 12 12.294 12.0744 12.9145C12.0744 12.9921 12.0744 13.0891 12.0744 13.2054C12.1302 13.5544 12.0186 13.8453 11.7395 14.078C11.4605 14.2525 11.1255 14.3107 10.8465 14.1362C10.7348 14.0974 10.6418 14.0586 10.5674 14.0198C10.0465 13.7871 9.52557 13.535 9.00464 13.2636C8.39068 12.9145 7.66511 12.9145 6.99535 13.2636C6.47442 13.535 5.95346 13.7871 5.43253 14.0198C5.35811 14.0586 5.28368 14.0974 5.20926 14.1362C4.87437 14.3107 4.5395 14.2525 4.31625 14.078C4.03718 13.8453 3.86976 13.5544 3.92558 13.2054C3.92558 13.0891 3.92558 12.9921 3.92558 12.9145C4 12.294 4.09302 11.6929 4.20465 11.1112C4.31628 10.4131 4.03716 9.65683 3.53484 9.13327C3.12554 8.70666 2.73485 8.28006 2.36276 7.85346C2.32555 7.77589 2.26971 7.69832 2.19529 7.62076C1.97203 7.32989 1.91627 7.03903 1.97209 6.68999C2.08372 6.34095 2.36276 6.10825 2.64183 6.05008C2.75346 6.0113 2.84648 5.9919 2.9209 5.9919C3.47904 5.87556 4.05577 5.75921 4.65112 5.64287C5.32089 5.52652 5.93485 5.1193 6.26974 4.42122C6.5302 3.87827 6.80927 3.35471 7.10695 2.85054C7.14416 2.77298 7.18134 2.69542 7.21855 2.61785C7.38599 2.26881 7.66507 2.15247 7.99996 2.15247Z" fill="url(#paint1_radial_6040_13601)" style="mix-blend-mode:screen"/>
<path d="M2.92091 10.9366C2.92091 10.5875 2.86509 10.2967 2.64184 10.064C1.80463 9.19138 0.18605 7.44618 0.0186082 6.7481C-0.0186011 6.51541 -1.00968e-05 6.28272 0.0744085 6.05002C0.148827 5.81733 0.260442 5.62342 0.409279 5.46829C0.967419 4.94473 3.25576 4.53752 4.42786 4.363C4.70693 4.30483 4.98604 4.07213 5.09767 3.83944C5.65581 2.67597 6.77207 0.58173 7.38603 0.23269C7.57207 0.0775609 7.77671 0 7.99997 0C8.26043 0 8.48373 0.0775609 8.66978 0.23269C9.28373 0.58173 10.3442 2.67597 10.9023 3.83944C11.0698 4.07213 11.293 4.30483 11.5721 4.363C12.5209 4.47935 14.0279 4.77021 14.9209 5.11925C9.78603 5.70098 5.32091 8.726 2.64184 13.0308C2.69765 12.2746 2.80928 11.4601 2.92091 10.9366Z" fill="url(#paint2_radial_6040_13601)" style="mix-blend-mode:screen"/>
<g style="mix-blend-mode:multiply">
<g style="mix-blend-mode:multiply">
<path d="M12.521 15.8813C12.7443 15.8813 12.9676 15.7068 13.3024 15.3577C13.1908 15.5129 13.0606 15.6486 12.9118 15.7649C12.7257 15.9201 12.5211 15.9976 12.2978 15.9976C11.5722 16.0558 9.50712 15.0087 8.44665 14.4851C8.16758 14.3106 7.8327 14.3106 7.60944 14.4851C6.49316 15.0087 4.42804 16.0558 3.70246 15.9976C3.47921 15.9976 3.27457 15.9201 3.08852 15.7649C2.92108 15.6486 2.80944 15.4741 2.86525 15.4741C3.0513 15.7068 3.25594 15.8425 3.47919 15.8813C4.26059 15.9976 6.43736 14.2524 7.55364 13.2635C7.83271 13.0308 8.16758 13.0308 8.44665 13.2635C9.56293 14.2524 11.7396 15.9976 12.521 15.8813ZM4.70707 4.77019C3.47916 4.82836 1.13501 5.00288 0.409424 5.46827C0.967563 4.94471 3.25591 4.5375 4.428 4.36298C4.70707 4.3048 4.98618 4.07211 5.09781 3.83941C5.65595 2.67595 6.77222 0.581706 7.38617 0.232666C6.7164 0.756226 5.87919 3.02498 5.43268 4.24662C5.32105 4.59566 5.04196 4.77019 4.70707 4.77019ZM10.5675 4.24662C10.1768 3.02498 9.28387 0.756226 8.66992 0.232666C9.28387 0.581706 10.3443 2.67595 10.9025 3.83941C11.0699 4.07211 11.2931 4.3048 11.5722 4.36298C12.8001 4.5375 15.0327 4.94471 15.5908 5.46827C14.8652 5.00288 12.5769 4.82836 11.2931 4.77019C10.9583 4.77019 10.735 4.59566 10.5675 4.24662ZM2.69778 15.2414C2.41871 14.5433 2.6978 12.1582 2.92105 10.9366C2.92105 10.5875 2.86524 10.2967 2.64198 10.064C1.80477 9.19136 0.186195 7.44617 0.0187531 6.68991C0.353637 7.50434 2.30713 9.01684 3.36759 9.83127C3.64666 10.0058 3.75829 10.3548 3.64666 10.7039C3.20015 11.9837 2.53034 14.3688 2.69778 15.2414ZM13.135 10.9366C13.3025 12.1582 13.6373 14.5433 13.3582 15.2414C13.5257 14.3688 12.8001 11.9837 12.3536 10.7039C12.242 10.3548 12.3536 10.0058 12.6327 9.83127C13.6932 9.01684 15.6467 7.50434 15.9815 6.68991C15.8141 7.44617 14.2513 9.19136 13.3582 10.064C13.1908 10.2967 13.0792 10.5875 13.135 10.9366Z" fill="url(#paint3_radial_6040_13601)" style="mix-blend-mode:multiply"/>
</g>
</g>
<path d="M1.58142 5.23562C2.6977 5.0611 3.59071 5.0611 4.70699 5.00292C5.1535 5.00292 5.37681 4.94475 5.60006 4.42119C6.10239 3.19955 6.38145 2.2106 7.05121 0.930787C7.10703 0.756267 7.21866 0.639918 7.33028 0.465398C7.60935 0.232705 7.88844 0.349051 7.83262 0.756265C7.64658 2.22999 7.40469 3.70372 7.10701 5.17744C6.88376 6.28274 6.21396 6.28273 5.26513 6.28273C4.09303 6.22456 2.53024 6.10822 1.35815 5.9337C0.353497 5.81735 0.855836 5.35197 1.58142 5.23562Z" fill="url(#paint4_radial_6040_13601)" style="mix-blend-mode:screen"/>
<path d="M6.82817 2.26877C7.10724 2.38512 7.16308 2.90868 6.99564 3.43224C6.77238 3.9558 6.4375 4.30484 6.15843 4.24666C5.93517 4.13032 5.87932 3.60676 6.04676 3.0832C6.2142 2.55963 6.60491 2.2106 6.82817 2.26877Z" fill="white"/>
<path d="M7.33066 0.930824C7.44228 1.04717 7.44228 1.33804 7.33066 1.6289C7.16321 1.91977 6.93995 2.0943 6.82832 2.03612C6.66088 1.97795 6.66088 1.68708 6.82832 1.39621C6.93995 1.04717 7.16321 0.87265 7.33066 0.930824Z" fill="white"/>
<path d="M12.2976 13.1472C12.6325 13.089 12.9673 13.438 13.0789 13.9034C13.1347 14.427 12.9673 14.8924 12.6324 14.9505C12.2417 15.0087 11.9069 14.6597 11.7952 14.1943C11.7394 13.6707 11.9069 13.2635 12.2976 13.1472Z" fill="url(#paint5_radial_6040_13601)" style="mix-blend-mode:screen"/>
<path d="M13.8605 8.66785C13.414 9.07507 12.9117 9.36593 12.4094 9.77314C12.1861 9.94766 12.0745 10.1804 12.1303 10.5294C12.242 10.8203 12.3536 11.1111 12.4094 11.402C12.7443 12.4491 12.4652 12.4491 11.9629 11.6347C11.7396 11.2857 11.5164 10.9366 11.2931 10.5876C10.9024 9.83132 11.0699 9.48228 11.7397 9.07506C12.3536 8.72602 13.0233 8.49333 13.6373 8.26064C14.1954 8.02795 14.4187 8.20247 13.8605 8.66785Z" fill="url(#paint6_radial_6040_13601)" style="mix-blend-mode:screen"/>
<defs>
<radialGradient id="paint0_radial_6040_13601" cx="0" cy="0" r="1" gradientUnits="userSpaceOnUse" gradientTransform="translate(4.59535 0.988947) scale(16.2419 16.9284)">
<stop stop-color="#FFB300"/>
<stop offset="1" stop-color="#FF820B"/>
</radialGradient>
<radialGradient id="paint1_radial_6040_13601" cx="0" cy="0" r="1" gradientUnits="userSpaceOnUse" gradientTransform="translate(5.76743 5.52652) scale(10.7163 11.1693)">
<stop stop-color="#FFB300"/>
<stop offset="1"/>
</radialGradient>
<radialGradient id="paint2_radial_6040_13601" cx="0" cy="0" r="1" gradientUnits="userSpaceOnUse" gradientTransform="translate(4.14883 0.232693) scale(14.2884 14.8924)">
<stop stop-color="#FFB300"/>
<stop offset="1"/>
</radialGradient>
<radialGradient id="paint3_radial_6040_13601" cx="0" cy="0" r="1" gradientUnits="userSpaceOnUse" gradientTransform="translate(9.22805 10.762) scale(11.386 11.8674)">
<stop stop-color="#9100FF"/>
<stop offset="1" stop-color="white"/>
</radialGradient>
<radialGradient id="paint4_radial_6040_13601" cx="0" cy="0" r="1" gradientUnits="userSpaceOnUse" gradientTransform="translate(4.09306 0.581745) scale(6.69772 6.9808)">
<stop stop-color="#FFFACF"/>
<stop offset="1"/>
</radialGradient>
<radialGradient id="paint5_radial_6040_13601" cx="0" cy="0" r="1" gradientUnits="userSpaceOnUse" gradientTransform="translate(13.9719 14.5433) scale(3.29292 3.43223)">
<stop stop-color="#FFF380"/>
<stop offset="1"/>
</radialGradient>
<radialGradient id="paint6_radial_6040_13601" cx="0" cy="0" r="1" gradientUnits="userSpaceOnUse" gradientTransform="translate(14.8652 11.402) scale(4.85577 5.06108)">
<stop/>
<stop offset="1" stop-color="#FFF380"/>
</radialGradient>
</defs>
</svg>
