<svg width="20" height="20" viewBox="0 0 20 20" fill="none" xmlns="http://www.w3.org/2000/svg">
<path d="M15.7918 15.7913C16.0166 15.5665 16.3892 15.5665 16.614 15.7913L18.1646 17.3419C18.3894 17.5667 18.3894 17.9393 18.1646 18.1641C18.0483 18.2803 17.9007 18.3344 17.7535 18.3344C17.6062 18.3344 17.4586 18.2803 17.3423 18.1641L15.7918 16.6135C15.567 16.3887 15.567 16.0161 15.7918 15.7913Z" fill="#121212"/>
<path fill-rule="evenodd" clip-rule="evenodd" d="M9.61307 1.66602C13.9934 1.66602 17.5596 5.23228 17.5596 9.61258C17.5596 13.9929 13.9934 17.5591 9.61307 17.5591C5.23277 17.5591 1.6665 13.9929 1.6665 9.61258C1.6665 5.23228 5.23277 1.66602 9.61307 1.66602ZM9.61307 2.82893C5.86849 2.82893 2.82942 5.87576 2.82942 9.61258C2.82942 13.3494 5.86849 16.3962 9.61307 16.3962C13.3576 16.3962 16.3967 13.3494 16.3967 9.61258C16.3967 5.87576 13.3576 2.82893 9.61307 2.82893Z" fill="#121212"/>
</svg>
