<svg width="28" height="28" viewBox="0 0 28 28" fill="none" xmlns="http://www.w3.org/2000/svg">
<path opacity="0.4" d="M14.0196 25.088V3.24841C14.3907 3.25638 14.7171 3.48937 14.8318 3.82836C16.3567 8.34532 20.0713 11.9103 24.7683 13.3685C25.13 13.4816 25.375 13.8042 25.375 14.1682C25.375 14.5322 25.13 14.8548 24.7683 14.9679C20.0713 16.425 16.3555 19.9911 14.8318 24.5069C14.7171 24.8471 14.3907 25.08 14.0196 25.088Z" fill="#121212"/>
<path d="M14.0196 3.24863C14.0131 3.24848 14.0065 3.24841 14 3.24841C13.6197 3.24841 13.2837 3.48361 13.167 3.82857C11.6422 8.34553 7.9275 11.9105 3.2305 13.3687C2.86883 13.4819 2.625 13.8044 2.625 14.1684C2.625 14.5324 2.86883 14.855 3.2305 14.9681C7.9275 16.4252 11.6433 19.9913 13.167 24.5071C13.2837 24.8532 13.6197 25.0884 14 25.0884C14.0065 25.0884 14.0131 25.0883 14.0196 25.0882V3.24863Z" fill="#121212"/>
</svg>
