<svg width="16" height="16" viewBox="0 0 16 16" fill="none" xmlns="http://www.w3.org/2000/svg">
<path fill-rule="evenodd" clip-rule="evenodd" d="M7.99927 13.4993C7.22127 13.4993 6.58995 12.8707 6.58195 12.0953H9.41593C9.40793 12.8707 8.7766 13.4993 7.99927 13.4993ZM12.6799 8.992C12.4939 8.598 12.3999 8.17667 12.3999 7.73733L12.3993 6.92133C12.3993 4.66533 10.6906 2.80333 8.49993 2.554V2C8.49993 1.724 8.27593 1.5 7.99993 1.5C7.72393 1.5 7.49993 1.724 7.49993 2V2.554C5.31062 2.80333 3.60262 4.666 3.60262 6.92133L3.60195 7.73733C3.60195 8.16733 3.50529 8.60133 3.32195 8.992L3.03329 9.60533C2.77662 10.1487 2.81662 10.7767 3.13795 11.284C3.45995 11.792 4.01195 12.0953 4.61262 12.0953H5.58195C5.58995 13.422 6.6706 14.4993 7.99927 14.4993C9.32793 14.4993 10.4079 13.422 10.4159 12.0953H11.3879C11.9886 12.0953 12.5406 11.792 12.8619 11.2847C13.1839 10.7773 13.2239 10.1493 12.9679 9.60533L12.6799 8.992Z" fill="white"/>
<path fill-rule="evenodd" clip-rule="evenodd" d="M3.41198 4.52897C3.68998 3.92297 4.12665 3.37697 4.67531 2.94897C4.89331 2.77897 4.93131 2.46497 4.76198 2.24697C4.59198 2.02897 4.27798 1.98964 4.06065 2.16031C3.38598 2.68631 2.84731 3.36164 2.50331 4.11164C2.38798 4.36297 2.49798 4.65964 2.74931 4.77497C2.81665 4.80564 2.88731 4.82031 2.95731 4.82031C3.14665 4.82031 3.32798 4.71231 3.41198 4.52897Z" fill="white"/>
<path fill-rule="evenodd" clip-rule="evenodd" d="M13.4967 4.11164C13.1527 3.36164 12.614 2.68697 11.9387 2.16031C11.7207 1.98964 11.4067 2.02897 11.2367 2.24697C11.0673 2.46497 11.106 2.77897 11.324 2.94897C11.8727 3.37697 12.3107 3.92364 12.588 4.52897C12.672 4.71231 12.8533 4.82031 13.042 4.82031C13.1127 4.82031 13.1833 4.80564 13.2507 4.77497C13.502 4.65964 13.612 4.36297 13.4967 4.11164Z" fill="white"/>
</svg>
