<svg width="24" height="24" viewBox="0 0 24 24" fill="none" xmlns="http://www.w3.org/2000/svg">
<path d="M24 0V24H0V0H24Z" fill="white" fill-opacity="0.01"/>
<rect x="2" y="2" width="20" height="20" rx="4.3" fill="url(#paint0_radial_7490_1462)"/>
<rect x="2" y="2" width="20" height="20" rx="4.3" fill="url(#paint1_radial_7490_1462)"/>
<path d="M16.9983 8.07171C16.9983 8.66344 16.5186 9.14314 15.9269 9.14314C15.3352 9.14314 14.8555 8.66344 14.8555 8.07171C14.8555 7.47997 15.3352 7.00028 15.9269 7.00028C16.5186 7.00028 16.9983 7.47997 16.9983 8.07171Z" fill="white"/>
<path fill-rule="evenodd" clip-rule="evenodd" d="M11.9983 15.5717C13.9708 15.5717 15.5698 13.9727 15.5698 12.0003C15.5698 10.0278 13.9708 8.42885 11.9983 8.42885C10.0259 8.42885 8.4269 10.0278 8.4269 12.0003C8.4269 13.9727 10.0259 15.5717 11.9983 15.5717ZM11.9983 14.1431C13.1818 14.1431 14.1412 13.1837 14.1412 12.0003C14.1412 10.8168 13.1818 9.85742 11.9983 9.85742C10.8149 9.85742 9.85547 10.8168 9.85547 12.0003C9.85547 13.1837 10.8149 14.1431 11.9983 14.1431Z" fill="white"/>
<path fill-rule="evenodd" clip-rule="evenodd" d="M4.85547 11.7146C4.85547 9.31434 4.85547 8.11423 5.32258 7.19746C5.73347 6.39105 6.3891 5.73542 7.19551 5.32454C8.11227 4.85742 9.31239 4.85742 11.7126 4.85742H12.284C14.6843 4.85742 15.8844 4.85742 16.8011 5.32454C17.6076 5.73542 18.2632 6.39105 18.6741 7.19746C19.1412 8.11423 19.1412 9.31434 19.1412 11.7146V12.286C19.1412 14.6862 19.1412 15.8863 18.6741 16.8031C18.2632 17.6095 17.6076 18.2651 16.8011 18.676C15.8844 19.1431 14.6843 19.1431 12.284 19.1431H11.7126C9.31239 19.1431 8.11227 19.1431 7.19551 18.676C6.3891 18.2651 5.73347 17.6095 5.32258 16.8031C4.85547 15.8863 4.85547 14.6862 4.85547 12.286V11.7146ZM11.7126 6.28599H12.284C13.5077 6.28599 14.3396 6.2871 14.9826 6.33964C15.6089 6.39081 15.9292 6.48356 16.1526 6.5974C16.6902 6.87133 17.1273 7.30841 17.4012 7.84602C17.515 8.06945 17.6078 8.38974 17.659 9.01605C17.7115 9.65903 17.7126 10.4909 17.7126 11.7146V12.286C17.7126 13.5097 17.7115 14.3415 17.659 14.9845C17.6078 15.6108 17.515 15.9311 17.4012 16.1545C17.1273 16.6921 16.6902 17.1292 16.1526 17.4032C15.9292 17.517 15.6089 17.6097 14.9826 17.6609C14.3396 17.7135 13.5077 17.7146 12.284 17.7146H11.7126C10.4889 17.7146 9.65708 17.7135 9.01409 17.6609C8.38779 17.6097 8.0675 17.517 7.84407 17.4032C7.30646 17.1292 6.86937 16.6921 6.59545 16.1545C6.48161 15.9311 6.38886 15.6108 6.33769 14.9845C6.28515 14.3415 6.28404 13.5097 6.28404 12.286V11.7146C6.28404 10.4909 6.28515 9.65903 6.33769 9.01605C6.38886 8.38974 6.48161 8.06945 6.59545 7.84602C6.86937 7.30841 7.30646 6.87133 7.84407 6.5974C8.0675 6.48356 8.38779 6.39081 9.01409 6.33964C9.65708 6.2871 10.4889 6.28599 11.7126 6.28599Z" fill="white"/>
<defs>
<radialGradient id="paint0_radial_7490_1462" cx="0" cy="0" r="1" gradientUnits="userSpaceOnUse" gradientTransform="translate(7.31253 23.5404) rotate(-90) scale(19.8215 18.4355)">
<stop stop-color="#FFDD55"/>
<stop offset="0.1" stop-color="#FFDD55"/>
<stop offset="0.5" stop-color="#FF543E"/>
<stop offset="1" stop-color="#C837AB"/>
</radialGradient>
<radialGradient id="paint1_radial_7490_1462" cx="0" cy="0" r="1" gradientTransform="matrix(1.73907 8.68794 -35.8113 7.17241 -1.35011 3.44077)" gradientUnits="userSpaceOnUse">
<stop stop-color="#3771C8"/>
<stop offset="0.128" stop-color="#3771C8"/>
<stop offset="1" stop-color="#6600FF" stop-opacity="0"/>
</radialGradient>
</defs>
</svg>
