<svg  width="24" height="24"   viewBox="0 0 24 24" fill="none" xmlns="http://www.w3.org/2000/svg">
<g id="Store">
<path id="Vector" fill-rule="evenodd" clip-rule="evenodd" d="M12.4695 17.564C11.4405 17.564 10.6035 18.3646 10.6035 19.3496V21.2024C10.6035 21.3614 10.7379 21.4904 10.9035 21.4904H14.0355C14.2012 21.4904 14.3355 21.3614 14.3355 21.2024V19.3496C14.3355 18.3646 13.4985 17.564 12.4695 17.564Z" fill="#876FFF"/>
<path id="Vector_2" fill-rule="evenodd" clip-rule="evenodd" d="M15.6638 12.264C15.5531 12.1899 15.4054 12.19 15.2946 12.2641C14.4895 12.802 13.5225 13.1285 12.4702 13.1285C11.4178 13.1285 10.4507 12.8019 9.64557 12.2646C9.53493 12.1908 9.38744 12.1907 9.2768 12.2646C8.4738 12.8004 7.51638 13.1285 6.48922 13.1285C5.81723 13.1285 5.14845 12.9885 4.5262 12.7354C4.31739 12.6505 4.07422 12.7912 4.07422 13.0088V16.6133C4.07422 19.366 6.00054 21.3509 8.80311 21.4831C8.9686 21.4909 9.10322 21.3612 9.10322 21.2021V19.3493C9.10322 17.5705 10.6132 16.1237 12.4692 16.1237C14.3252 16.1237 15.8352 17.5705 15.8352 19.3493V21.2021C15.8352 21.3612 15.9697 21.4908 16.1353 21.484C19.0143 21.3651 21.0872 19.5304 21.0872 16.6133V12.922C21.0872 12.6984 20.8314 12.5576 20.6206 12.653C19.9409 12.9603 19.1975 13.1285 18.4522 13.1285C17.4251 13.1285 16.4669 12.8005 15.6638 12.264Z" fill="#876FFF"/>
<path id="Vector_3" fill-rule="evenodd" clip-rule="evenodd" d="M21.9436 8.26063C21.8396 7.56079 21.5406 6.50383 21.0276 5.02639C20.6226 3.86671 19.4906 3.08719 18.2136 3.08719H6.7146C5.4276 3.08719 4.2956 3.87151 3.8956 5.03983C3.4056 6.47791 3.1036 7.56079 2.9986 8.25967C2.8816 9.02959 3.1376 9.80911 3.7186 10.4532C4.4066 11.2155 5.4676 11.6888 6.4896 11.6888C7.56653 11.6888 8.53988 11.1874 9.18498 10.4233C9.32762 10.2543 9.61541 10.2557 9.75694 10.4254C10.3961 11.1924 11.3705 11.6888 12.4706 11.6888C13.5714 11.6888 14.5457 11.1918 15.1849 10.4244C15.3265 10.2543 15.6147 10.2531 15.7574 10.4223C16.4021 11.1869 17.3761 11.6888 18.4536 11.6888C19.4736 11.6888 20.5346 11.2155 21.2206 10.4542C21.8026 9.80911 22.0586 9.03055 21.9436 8.26063Z" fill="#876FFF"/>
</g>
</svg>
