<svg width="16" height="16" viewBox="0 0 16 16" fill="none" xmlns="http://www.w3.org/2000/svg">
<path fill-rule="evenodd" clip-rule="evenodd" d="M13.4167 8.59989C13.4167 9.43055 13.0853 9.49989 12.7167 9.49989H12.568C12.5747 9.37789 12.588 9.25989 12.5833 9.13322V6.93322C12.5833 6.80389 12.5653 6.68789 12.5547 6.56591H12.7167C13.0853 6.56591 13.4167 6.63524 13.4167 7.46655V8.59989ZM10.0167 9.19922C10.0167 9.47522 9.79268 9.69922 9.51668 9.69922C9.24068 9.69922 9.01668 9.47522 9.01668 9.19922V6.79989C9.01668 6.52391 9.24068 6.29991 9.51668 6.29991C9.79268 6.29991 10.0167 6.52391 10.0167 6.79989V9.19922ZM7.55001 9.19922C7.55001 9.47522 7.32601 9.69922 7.05001 9.69922C6.77401 9.69922 6.55001 9.47522 6.55001 9.19922V6.79989C6.55001 6.52391 6.77401 6.29991 7.05001 6.29991C7.32601 6.29991 7.55001 6.52391 7.55001 6.79989V9.19922ZM5.01668 9.19922C5.01668 9.47522 4.79268 9.69922 4.51668 9.69922C4.24068 9.69922 4.01668 9.47522 4.01668 9.19922V6.79989C4.01668 6.52391 4.24068 6.29991 4.51668 6.29991C4.79268 6.29991 5.01668 6.52391 5.01668 6.79989V9.19922ZM12.7167 5.56591H12.3367C11.906 4.48457 10.9213 3.86591 9.51668 3.86591H4.65001C2.75868 3.86591 1.58334 5.01591 1.58334 6.86589V9.13322C1.58334 10.9832 2.75868 12.1332 4.65001 12.1332H9.51668C10.5167 12.1332 11.3293 11.8379 11.866 11.2806C12.078 11.0606 12.234 10.7926 12.3533 10.4999H12.7167C13.228 10.4999 14.4167 10.3146 14.4167 8.59989V7.46655C14.4167 5.75124 13.228 5.56591 12.7167 5.56591Z" fill="#3DC562"/>
</svg>
