<svg width="20" height="20" viewBox="0 0 20 20" fill="none" xmlns="http://www.w3.org/2000/svg">
<path fill-rule="evenodd" clip-rule="evenodd" d="M15.8023 11.9722C15.3415 11.9722 14.969 11.5989 14.969 11.1389V10.0714H13.869C13.4081 10.0714 13.0356 9.69808 13.0356 9.23808C13.0356 8.77808 13.4081 8.40475 13.869 8.40475H14.969V7.33724C14.969 6.87641 15.3415 6.50391 15.8023 6.50391C16.2631 6.50391 16.6356 6.87641 16.6356 7.33724V8.40475H17.7373C18.1981 8.40475 18.5706 8.77808 18.5706 9.23808C18.5706 9.69808 18.1981 10.0714 17.7373 10.0714H16.6356V11.1389C16.6356 11.5989 16.2631 11.9722 15.8023 11.9722Z" fill="#9171F4"/>
<path fill-rule="evenodd" clip-rule="evenodd" d="M8.10418 12.0962C3.95501 12.0962 2.09668 14.3912 2.09668 16.6662C2.09668 16.832 2.16251 16.9912 2.28001 17.1087C2.39668 17.2254 2.55585 17.2912 2.72168 17.2912L13.4867 17.2762C13.8317 17.2754 14.1109 16.9954 14.1109 16.6512C14.1109 14.3837 12.2534 12.0962 8.10418 12.0962Z" fill="#9171F4"/>
<path fill-rule="evenodd" clip-rule="evenodd" d="M8.104 10.8343C10.344 10.8343 12.1665 9.011 12.1665 6.771C12.1665 4.531 10.344 2.7085 8.104 2.7085C5.864 2.7085 4.0415 4.531 4.0415 6.771C4.0415 9.011 5.864 10.8343 8.104 10.8343Z" fill="#9171F4"/>
</svg>
