<svg width="20" height="20" viewBox="0 0 20 20" fill="none" xmlns="http://www.w3.org/2000/svg">
<path fill-rule="evenodd" clip-rule="evenodd" d="M10.5257 14.75C10.1174 14.75 9.7674 14.3834 9.7674 13.9584C9.7674 13.5334 10.1174 13.1667 10.5257 13.1667C10.9924 13.1667 11.3507 13.5167 11.3507 13.9584C11.3507 14.4084 10.9174 14.75 10.5257 14.75ZM12.2674 2.70837H8.85073C7.13408 2.70837 5.68408 4.15837 5.68408 5.87504V14.125C5.68408 15.8417 7.13408 17.2917 8.85073 17.2917H12.2674C13.9841 17.2917 15.4341 15.8417 15.4341 14.125V5.87504C15.4341 4.15837 13.9841 2.70837 12.2674 2.70837Z" fill="white"/>
<path fill-rule="evenodd" clip-rule="evenodd" d="M3.82568 12.2665L3.15902 12.9331C2.91485 13.1772 2.91485 13.5722 3.15902 13.8165C3.28068 13.939 3.44068 13.9998 3.60068 13.9998C3.76068 13.9998 3.92068 13.939 4.04235 13.8165L4.70985 13.1507C4.95402 12.9065 4.95402 12.5107 4.70985 12.2665C4.46568 12.0223 4.06985 12.0223 3.82568 12.2665Z" fill="white"/>
<path fill-rule="evenodd" clip-rule="evenodd" d="M4.04251 6.10024C3.79834 5.85607 3.40168 5.85607 3.15834 6.10024C2.91418 6.34441 2.91418 6.74024 3.15834 6.98441L3.82584 7.65024C3.94751 7.77274 4.10751 7.83357 4.26751 7.83357C4.42751 7.83357 4.58751 7.77274 4.70918 7.65024C4.95334 7.40607 4.95334 7.01107 4.70918 6.76691L4.04251 6.10024Z" fill="white"/>
<path fill-rule="evenodd" clip-rule="evenodd" d="M17.2094 12.2665C16.9653 12.0223 16.5694 12.0223 16.3253 12.2665C16.0811 12.5107 16.0811 12.9065 16.3253 13.1507L16.9919 13.8165C17.1144 13.939 17.2744 13.9998 17.4344 13.9998C17.5936 13.9998 17.7536 13.939 17.8761 13.8165C18.1203 13.5722 18.1203 13.1772 17.8761 12.9331L17.2094 12.2665Z" fill="white"/>
<path fill-rule="evenodd" clip-rule="evenodd" d="M16.7675 7.83357C16.9275 7.83357 17.0875 7.77274 17.2092 7.65024L17.8758 6.98357C18.12 6.74024 18.12 6.34441 17.8758 6.10024C17.6317 5.85607 17.2358 5.85607 16.9925 6.10024L16.3258 6.76691C16.0817 7.01107 16.0817 7.40607 16.3258 7.65024C16.4475 7.77274 16.6075 7.83357 16.7675 7.83357Z" fill="white"/>
<path fill-rule="evenodd" clip-rule="evenodd" d="M3.93424 10.5835C4.27924 10.5835 4.55924 10.3035 4.55924 9.9585C4.55924 9.6135 4.27924 9.3335 3.93424 9.3335H3.01758C2.67258 9.3335 2.39258 9.6135 2.39258 9.9585C2.39258 10.3035 2.67258 10.5835 3.01758 10.5835H3.93424Z" fill="white"/>
<path fill-rule="evenodd" clip-rule="evenodd" d="M18.0175 9.3335H17.1008C16.7558 9.3335 16.4758 9.6135 16.4758 9.9585C16.4758 10.3035 16.7558 10.5835 17.1008 10.5835H18.0175C18.3625 10.5835 18.6425 10.3035 18.6425 9.9585C18.6425 9.6135 18.3625 9.3335 18.0175 9.3335Z" fill="white"/>
</svg>
