<svg width="20" height="20" viewBox="0 0 20 20" fill="none" xmlns="http://www.w3.org/2000/svg">
<path fill-rule="evenodd" clip-rule="evenodd" d="M13.383 7.87878C12.5113 7.68438 11.4605 7.59558 10.208 7.59558C8.95549 7.59558 7.90466 7.68438 7.03299 7.87878V6.73318C7.06049 5.07398 8.43632 3.75798 10.1663 3.73638C11.0255 3.71398 11.818 4.03398 12.4255 4.60278C13.0322 5.17158 13.373 5.93238 13.383 6.73958V7.87878ZM10.833 14.038C10.833 14.3692 10.553 14.638 10.208 14.638C9.86299 14.638 9.58299 14.3692 9.58299 14.038V12.2612C9.58299 11.93 9.86299 11.6612 10.208 11.6612C10.553 11.6612 10.833 11.93 10.833 12.2612V14.038ZM14.633 8.28918V6.73238C14.618 5.59718 14.1447 4.53558 13.2972 3.74358C12.4513 2.95158 11.323 2.55878 10.1497 2.53638C7.74049 2.56598 5.82216 4.40118 5.78299 6.72438V8.28998C4.08799 9.06598 3.40799 10.5468 3.40799 13.0124C3.40799 17.0124 5.18799 18.43 10.208 18.43C15.2288 18.43 17.0088 17.0124 17.0088 13.0124C17.0088 10.5468 16.328 9.06518 14.633 8.28918Z" fill="#121212"/>
</svg>
