<svg width="20" height="20" viewBox="0 0 20 20" fill="none" xmlns="http://www.w3.org/2000/svg">
<path fill-rule="evenodd" clip-rule="evenodd" d="M17.1086 6.38658C17.3527 6.63067 17.3527 7.02639 17.1086 7.27046L10.8812 13.4972C10.881 13.4973 10.8814 13.497 10.8812 13.4972C10.4842 13.8955 9.84027 13.8943 9.44419 13.4982L6.46828 10.5223C6.2242 10.2782 6.2242 9.88258 6.46828 9.63849C6.71235 9.39441 7.10808 9.39441 7.35216 9.63849L10.1621 12.4484L16.2248 6.38653C16.4689 6.14246 16.8646 6.14248 17.1086 6.38658Z" fill="white"/>
<path fill-rule="evenodd" clip-rule="evenodd" d="M13.2065 6.38668C13.4506 6.63075 13.4506 7.02648 13.2065 7.27056L10.6047 9.87233C10.3606 10.1164 9.96493 10.1164 9.72084 9.87233C9.47676 9.62833 9.47676 9.23258 9.72084 8.9885L12.3227 6.38668C12.5668 6.14259 12.9624 6.14259 13.2065 6.38668Z" fill="white"/>
<path fill-rule="evenodd" clip-rule="evenodd" d="M2.89137 9.96419C3.13544 9.72011 3.53118 9.72011 3.77525 9.96419L6.26018 12.4491L7.76924 10.94C8.01331 10.6959 8.40906 10.6959 8.65314 10.94C8.89723 11.1841 8.89723 11.5799 8.65314 11.8239L6.97815 13.4989C6.58129 13.8958 5.93907 13.8958 5.54219 13.4989L2.89137 10.848C2.64729 10.6039 2.64729 10.2083 2.89137 9.96419Z" fill="white"/>
</svg>
