<svg width="20" height="20" viewBox="0 0 20 20" fill="none" xmlns="http://www.w3.org/2000/svg">
<path fill-rule="evenodd" clip-rule="evenodd" d="M9.42306 13.0285C7.75306 13.0285 6.39459 11.67 6.39459 10C6.39459 8.33003 7.75306 6.9708 9.42306 6.9708C11.0931 6.9708 12.4523 8.33003 12.4523 10C12.4523 11.67 11.0931 13.0285 9.42306 13.0285ZM16.8984 7.79003L14.7446 6.92849L15.0754 4.6308L11.2477 2.42157L9.42383 3.85695L7.5992 2.42157L3.77151 4.6308L4.10228 6.92849L1.94766 7.79003V12.21L4.10305 13.0723L3.77228 15.3685L7.59997 17.5785L9.42383 16.1439L11.2469 17.5785L15.0746 15.3685L14.7438 13.0716L16.8984 12.21V7.79003Z" fill="#121212"/>
</svg>
